<svg xmlns="http://www.w3.org/2000/svg" viewBox="0 0 328.87 104.14"><defs><style>.cls-1{fill:#fff;}.cls-2{fill:#242a39;}.cls-3{fill:#6ecdef;}.cls-4{fill:#f4608e;}.cls-5{fill:#5e5aa6;}.cls-6{fill:#2bb8f7;}.cls-7{fill:#ffaf45;}.cls-8{fill:#fc9163;}.cls-9{fill:#a3458b;}.cls-10{fill:#ff895a;}.cls-11{fill:#f2447a;}</style></defs><title>logo-dark</title><g id="Layer_2" data-name="Layer 2"><g id="Layer_1-2" data-name="Layer 1"><path class="cls-1" d="M63.8,103.42A26.77,26.77,0,0,1,41.23,91.11L41,90.7l-.49.1A33,33,0,0,1,20.79,28.06l.61-.26-.21-.62A20.14,20.14,0,0,1,58.71,12.65l.29.65.65-.28a33,33,0,0,1,30.9,58.14l-.4.26.08.47a27.58,27.58,0,0,1,.41,4.68A26.88,26.88,0,0,1,63.8,103.42Z"/><path class="cls-2" d="M156.92,54c0,11.29-7.71,19-19.14,19H122.94V35.11h15.21C149.34,35.11,156.92,42.78,156.92,54Zm-9.42.11c0-6.54-4-11-9.57-11h-5.76V65h6.25c5.32,0,9.1-4.36,9.1-10.84Z"/><path class="cls-2" d="M193.16,73.43a12.33,12.33,0,0,1-10.33-5.83,12.09,12.09,0,0,1-10.22,5.83c-7.15,0-11.89-5.24-11.89-13.08V43.8h8.86V60c0,3,1.77,5,4.44,5s4.31-1.94,4.31-5V43.76h8.87V60c0,3,1.82,5,4.54,5,2.57,0,4.28-1.94,4.28-5V43.76h8.87V60.31C204.9,68.19,200.21,73.43,193.16,73.43Z"/><path class="cls-2" d="M230.84,62.52l5,4.86a15.19,15.19,0,0,1-12.5,6c-8.81,0-14.71-5.9-14.71-14.82s5.49-15,14.21-15.11c8.16-.06,13.55,5.3,13.75,13.94L218.4,62.11a5.86,5.86,0,0,0,5.64,4A9.24,9.24,0,0,0,230.84,62.52Zm-13.15-5.76,10.13-2.71c-.66-2.59-2.32-3.83-4.54-3.83-3.22,0-5.29,2.35-5.59,6.57Z"/><path class="cls-2" d="M251.74,65.06a5.67,5.67,0,0,0,2.57-.72l.76,7.91a13.24,13.24,0,0,1-5.24,1.24c-5,0-9.42-3.51-9.42-11V32.89h9V62.11c0,2.08,1,3,2.37,3Z"/><path class="cls-2" d="M269.2,65.06a5.64,5.64,0,0,0,2.57-.72l.76,7.91a13.24,13.24,0,0,1-5.24,1.24c-5,0-9.42-3.51-9.42-11V32.89h9V62.11c0,2.08.93,3,2.37,3Z"/><path class="cls-2" d="M285.29,50c-1.51,0-2.56.59-2.56,1.83,0,3.84,14.3,2,14.25,12.17,0,6-4.89,9.4-11.52,9.4a19.14,19.14,0,0,1-12.31-4.13L276,63.08a16.88,16.88,0,0,0,9.68,3.6c1.66,0,2.88-.59,2.88-1.78,0-4-14-2-14-12.11,0-6.11,4.78-9.45,11.18-9.45A20.91,20.91,0,0,1,297,46.74L294,53C290.58,51.11,287.5,50,285.29,50Z"/><path class="cls-2" d="M328.87,43.76V70c0,8.27-5.95,14-14.4,13.89A23.79,23.79,0,0,1,302.18,80l2.16-6.7a19.31,19.31,0,0,0,9.07,2.88c3.93,0,6.55-2.55,6.55-6.43V65.56a9.55,9.55,0,0,1-8.77,5c-6.25,0-10.18-4.31-10.18-11.19V43.72h9V56.59c0,3.29,1.77,5.29,4.64,5.29,3.32,0,5.34-2.65,5.34-6.76V43.76Z"/><path class="cls-3" d="M43.65,26.18A33.83,33.83,0,0,1,59.37,12.36a20.87,20.87,0,0,0-38.87,15,33.86,33.86,0,0,1,23.15-1.22Z"/><path class="cls-4" d="M62.8,75.65A33.78,33.78,0,0,1,40.63,91.5,27.56,27.56,0,0,0,91.36,76.57a28.3,28.3,0,0,0-.42-4.81A33.73,33.73,0,0,1,62.8,75.65Z"/><path class="cls-5" d="M42.7,58.83a33.48,33.48,0,0,1-3.76-15.46c0-.57,0-1.13.05-1.69A20.89,20.89,0,0,1,20.5,27.4,33.76,33.76,0,0,0,40.63,91.5,27.54,27.54,0,0,1,42.7,58.83Z"/><path class="cls-3" d="M39,41.68a33.54,33.54,0,0,1,4.66-15.5A33.86,33.86,0,0,0,20.5,27.4,20.89,20.89,0,0,0,39,41.68Z"/><path class="cls-6" d="M39,41.68a33.54,33.54,0,0,1,4.66-15.5A33.86,33.86,0,0,0,20.5,27.4,20.89,20.89,0,0,0,39,41.68Z"/><path class="cls-7" d="M42.7,58.83A33.82,33.82,0,0,0,62.8,75.65h0A33.77,33.77,0,1,0,39,41.68c0,.56-.05,1.12-.05,1.69A33.48,33.48,0,0,0,42.7,58.83"/><path class="cls-8" d="M56.73,33.74a33.68,33.68,0,0,0-13.08-7.56A33.54,33.54,0,0,0,39,41.68c0,.56-.05,1.12-.05,1.69A33.48,33.48,0,0,0,42.7,58.83,27.49,27.49,0,0,1,63.8,49c.8,0,1.6,0,2.39.11A33.77,33.77,0,0,0,56.73,33.74Z"/><path class="cls-5" d="M62.8,75.65A33.82,33.82,0,0,1,42.7,58.83,27.54,27.54,0,0,0,40.63,91.5,33.78,33.78,0,0,0,62.8,75.65Z"/><path class="cls-9" d="M62.8,75.65A33.82,33.82,0,0,1,42.7,58.83,27.54,27.54,0,0,0,40.63,91.5,33.78,33.78,0,0,0,62.8,75.65Z"/><path class="cls-10" d="M66.19,49.11A33.74,33.74,0,0,1,62.8,75.65a33.73,33.73,0,0,0,28.14-3.89A27.57,27.57,0,0,0,66.19,49.11Z"/><path class="cls-11" d="M42.7,58.83A33.82,33.82,0,0,0,62.8,75.65a33.74,33.74,0,0,0,3.39-26.54C65.4,49,64.6,49,63.8,49A27.49,27.49,0,0,0,42.7,58.83Z"/></g></g></svg>